<?xml version="1.0" standalone="no"?>
<!DOCTYPE svg PUBLIC "-//W3C//DTD SVG 20010904//EN"
 "http://www.w3.org/TR/2001/REC-SVG-20010904/DTD/svg10.dtd">
<svg version="1.0" xmlns="http://www.w3.org/2000/svg"
 width="48.000000pt" height="48.000000pt" viewBox="0 0 48.000000 48.000000"
 preserveAspectRatio="xMidYMid meet">

<g transform="translate(0.000000,48.000000) scale(0.100000,-0.100000)"
fill="#000000" stroke="none">
<path d="M150 385 c0 -43 -1 -45 -30 -45 -19 0 -40 -9 -55 -25 -23 -22 -25
-32 -25 -120 0 -88 2 -98 25 -120 23 -24 28 -25 175 -25 147 0 152 1 175 25
23 22 25 32 25 120 0 88 -2 98 -25 120 -15 16 -36 25 -55 25 -29 0 -30 2 -30
45 l0 45 -90 0 -90 0 0 -45z m150 -15 l0 -30 -60 0 -60 0 0 30 0 30 60 0 60 0
0 -30z m-30 -105 c26 -32 -13 -81 -47 -59 -23 14 -28 41 -13 59 16 19 44 19
60 0z m40 -104 c0 -25 -36 -51 -70 -51 -34 0 -70 26 -70 51 0 17 7 19 70 19
63 0 70 -2 70 -19z"/>
</g>
</svg>
